<?xml version="1.0" encoding="utf-8"?>
<!-- Generator: Adobe Illustrator 16.0.0, SVG Export Plug-In . SVG Version: 6.00 Build 0)  -->
<!DOCTYPE svg PUBLIC "-//W3C//DTD SVG 1.1//EN" "http://www.w3.org/Graphics/SVG/1.1/DTD/svg11.dtd">
<svg version="1.1" id="svg3010" xmlns:svg="http://www.w3.org/2000/svg"
	 xmlns="http://www.w3.org/2000/svg" xmlns:xlink="http://www.w3.org/1999/xlink" x="0px" y="0px" width="45px" height="42.5px"
	 viewBox="30.25 374 45 42.5" enable-background="new 30.25 374 45 42.5" xml:space="preserve">
<path id="path3016" fill="#FFFFFF" d="M46.764,376.378c1.076,0.007,2.151,0.005,3.228,0.001c0.052,0.539,0.049,1.082,0.039,1.623
	c-1.093,0.011-2.186-0.003-3.28,0.011C46.755,377.468,46.755,376.923,46.764,376.378z"/>
<path id="path3018" fill="#FFFFFF" d="M45.118,378.038c0.544-0.004,1.089-0.002,1.632-0.025c0.001,6.015,0.01,12.031,0.004,18.046
	c-0.548,0.013-1.096,0.013-1.644,0.001c-0.01-0.538-0.01-1.079-0.003-1.618c-0.544-0.021-1.089-0.018-1.634-0.015
	c-0.018-0.551-0.022-1.102-0.001-1.651c0.543-0.021,1.088-0.014,1.633-0.022C45.107,387.849,45.092,382.944,45.118,378.038
	L45.118,378.038z"/>
<path id="path3020" fill="#FFFFFF" d="M50.037,378.039c0.542-0.006,1.085-0.003,1.628,0.002c0.007,2.175-0.008,4.351,0.016,6.526
	c1.085,0.027,2.17,0.012,3.255,0.018c-0.001,0.542,0,1.085,0.032,1.627c1.633,0.026,3.27-0.039,4.902,0.047
	c-0.007,0.531-0.004,1.061,0.008,1.591c1.087,0.02,2.176,0.008,3.264,0.012c0.007,0.545-0.027,1.093,0.03,1.636
	c0.541,0.047,1.083,0.019,1.625,0.033c-0.009,0.532-0.004,1.062,0.009,1.594c0.535,0.01,1.072,0.015,1.609,0.01
	c0.025,2.091-0.016,4.184,0.042,6.272c-0.052,1.741-0.021,3.481-0.033,5.223c-0.539-0.005-1.079-0.006-1.614,0.06
	c-0.002,1.618-0.003,3.235-0.021,4.854c-0.537,0.016-1.076,0.034-1.612,0.008c-0.061-1.646-0.032-3.295-0.016-4.941
	c0.54,0.007,1.082,0.007,1.624,0.002c0.001-3.825,0.004-7.648,0.006-11.473c-0.541-0.008-1.081-0.007-1.622,0
	c-0.03-0.532,0.004-1.067-0.038-1.6c-0.537-0.103-1.084-0.039-1.626-0.041c-0.012,1.641,0.019,3.28-0.014,4.923
	c-0.536,0-1.071,0-1.607,0.001c-0.037-2.188,0.002-4.377-0.012-6.564c-1.097-0.007-2.194-0.004-3.29,0
	c0,1.64,0.017,3.278-0.002,4.917c-0.543,0.011-1.086,0.011-1.629,0.001c-0.01-2.187-0.013-4.374,0.014-6.561
	c-1.098-0.005-2.195-0.006-3.292,0.006c-0.012,2.186,0.008,4.37,0,6.554c-0.549,0.016-1.099,0.018-1.648,0.001
	C50.023,387.865,50.027,382.951,50.037,378.039L50.037,378.039z"/>
<path id="path3026" fill="#FFFFFF" d="M38.544,391.15c1.641-0.027,3.282-0.019,4.923-0.006c0.011,0.544,0.021,1.087,0.005,1.63
	c-1.088,0.026-2.177,0.007-3.265,0.016c-0.04,1.083,0.059,2.169-0.016,3.252c-0.547,0.063-1.1,0.021-1.648,0.011
	C38.541,394.418,38.547,392.784,38.544,391.15z"/>
<path id="path3030" fill="#FFFFFF" d="M40.237,396.078c0.526-0.081,1.062-0.051,1.593-0.036c0.012,0.548,0.013,1.095,0.008,1.644
	c0.547,0.002,1.095,0.002,1.643,0.01c0.013,1.09,0,2.18,0.006,3.271c0.54-0.002,1.082-0.002,1.623,0.006
	c-0.007,1.094,0.071,2.195-0.041,3.284c-0.533,0.049-1.067,0.01-1.6,0.002c-0.017-1.081-0.015-2.163-0.024-3.243
	c-0.542-0.003-1.083-0.013-1.625-0.034c-0.018-1.076,0.035-2.156-0.063-3.23c-0.524,0.003-1.048-0.007-1.572-0.033
	C40.184,397.17,40.112,396.615,40.237,396.078L40.237,396.078z"/>
<path id="path3038" fill="#FFFFFF" d="M45.144,404.263c0.535-0.042,1.073-0.016,1.611-0.015c0.015,1.089,0,2.178,0.004,3.266
	c0.546-0.003,1.094-0.003,1.641,0.018c0.01,1.088-0.01,2.177,0.006,3.266c4.363,0.011,8.726,0.009,13.089,0.007
	c0.017-1.09-0.004-2.181,0.007-3.271c0.559-0.007,1.117-0.014,1.675,0.018c0.089,1.633-0.071,3.267-0.025,4.902
	c-2.767,0.065-5.534,0.042-8.301,0.046c-2.703,0.003-5.405,0-8.106-0.039c-0.022-1.635-0.011-3.268-0.035-4.901
	c-0.534,0-1.067-0.009-1.6-0.02C45.119,406.448,45.032,405.348,45.144,404.263L45.144,404.263z"/>
</svg>
