<?xml version="1.0" encoding="utf-8"?>
<!-- Generator: Adobe Illustrator 16.0.0, SVG Export Plug-In . SVG Version: 6.00 Build 0)  -->
<!DOCTYPE svg PUBLIC "-//W3C//DTD SVG 1.1//EN" "http://www.w3.org/Graphics/SVG/1.1/DTD/svg11.dtd">
<svg version="1.1" id="svg3010" xmlns:svg="http://www.w3.org/2000/svg"
	 xmlns="http://www.w3.org/2000/svg" xmlns:xlink="http://www.w3.org/1999/xlink" x="0px" y="0px" width="45px" height="42.5px"
	 viewBox="30.25 374 45 42.5" enable-background="new 30.25 374 45 42.5" xml:space="preserve">
<g>
	<path fill="#FFFFFF" d="M68.146,403.741c0,0,0-13.585,0-18.415c0-4.834-4.311-5.746-4.311-5.746s-11.622,0-18.937,0
		c-7.318,0-6.535,7.182-6.535,7.182s-0.02,10.71-0.02,16.588c0,5.877,5.509,6.399,5.509,6.399s10.841,0,17.629,0
		C68.277,409.749,68.146,403.741,68.146,403.741z M60.329,407.631c-5.839,0-15.157,0-15.157,0s-4.736-0.449-4.736-5.501
		c0-5.051,0.02-14.257,0.02-14.257s-0.672-6.176,5.617-6.176c6.29,0,16.277,0,16.277,0s3.704,0.789,3.704,4.939
		c0,4.155,0,15.829,0,15.829S66.169,407.631,60.329,407.631z"/>
	<path fill="#FFFFFF" d="M61.486,410.605L43.771,410.6c-2.171-0.208-6.282-1.984-6.282-7.25c0-5.667,0.02-15.815,0.025-16.548
		c-0.04-0.467-0.241-3.649,1.782-5.907c1.29-1.438,3.177-2.169,5.601-2.169h19.027l0.088,0.016c1.724,0.369,4.989,2.213,4.989,6.585
		v18.418c0.002,0.096,0.035,2.818-1.925,4.821C65.752,409.915,63.87,410.605,61.486,410.605z M43.899,408.896h17.586
		c1.907,0,3.378-0.513,4.372-1.529c1.463-1.498,1.436-3.585,1.436-3.605v-18.436c0-3.774-3.016-4.748-3.559-4.895H44.898
		c-1.915,0-3.373,0.538-4.327,1.598c-1.631,1.809-1.36,4.612-1.36,4.643l0.005,0.095c0,0-0.021,10.71-0.021,16.583
		C39.196,408.216,43.427,408.841,43.899,408.896z M60.329,408.484l-15.235-0.002c-1.908-0.179-5.511-1.74-5.511-6.353
		c0-4.858,0.02-13.552,0.02-14.219c-0.035-0.434-0.196-3.197,1.564-5.163c1.131-1.264,2.786-1.904,4.906-1.904h16.367l0.09,0.021
		c1.511,0.321,4.382,1.941,4.382,5.772v15.829c0,0.083,0.03,2.47-1.691,4.232C64.056,407.882,62.41,408.484,60.329,408.484z
		 M45.214,406.777h15.112c1.606,0,2.841-0.426,3.671-1.274c1.207-1.232,1.202-3.002,1.202-3.02v-15.847
		c0-3.123-2.475-3.95-2.957-4.086H46.067c-1.611,0-2.836,0.448-3.634,1.34c-1.348,1.506-1.132,3.864-1.129,3.892l0.005,0.048v0.048
		c0,0-0.021,9.206-0.021,14.257C41.289,406.191,44.8,406.728,45.214,406.777z"/>
</g>
<g>
	<path fill="#FFFFFF" d="M47.691,391.492c0.446,0.2,0.813,0.515,1.104,0.945c0.261,0.38,0.431,0.819,0.509,1.32
		c0.045,0.293,0.063,0.716,0.055,1.268h-4.651c0.026,0.641,0.249,1.09,0.668,1.348c0.255,0.16,0.562,0.24,0.921,0.24
		c0.38,0,0.689-0.098,0.927-0.293c0.13-0.105,0.245-0.252,0.344-0.439h1.705c-0.045,0.379-0.251,0.764-0.619,1.154
		c-0.572,0.621-1.373,0.932-2.403,0.932c-0.85,0-1.6-0.262-2.25-0.786c-0.65-0.523-0.975-1.376-0.975-2.557
		c0-1.106,0.293-1.955,0.88-2.545c0.586-0.591,1.348-0.886,2.284-0.886C46.745,391.193,47.246,391.293,47.691,391.492z
		 M45.193,392.936c-0.236,0.243-0.384,0.572-0.445,0.988h2.877c-0.03-0.443-0.179-0.779-0.445-1.009s-0.596-0.345-0.99-0.345
		C45.761,392.57,45.429,392.692,45.193,392.936z"/>
	<path fill="#FFFFFF" d="M51.498,395.711c0.035,0.297,0.112,0.508,0.229,0.633c0.208,0.223,0.593,0.334,1.154,0.334
		c0.33,0,0.591-0.049,0.786-0.146s0.292-0.244,0.292-0.439c0-0.188-0.078-0.33-0.235-0.428c-0.156-0.098-0.739-0.266-1.747-0.504
		c-0.726-0.18-1.237-0.404-1.534-0.674c-0.297-0.266-0.445-0.648-0.445-1.148c0-0.59,0.232-1.097,0.696-1.521
		s1.117-0.636,1.958-0.636c0.798,0,1.449,0.159,1.952,0.478s0.792,0.868,0.866,1.649h-1.67c-0.023-0.215-0.084-0.385-0.182-0.51
		c-0.184-0.227-0.498-0.34-0.94-0.34c-0.364,0-0.624,0.057-0.779,0.17s-0.232,0.246-0.232,0.398c0,0.191,0.082,0.33,0.247,0.416
		c0.164,0.09,0.745,0.244,1.743,0.463c0.666,0.156,1.164,0.393,1.496,0.709c0.328,0.32,0.492,0.721,0.492,1.201
		c0,0.633-0.236,1.149-0.708,1.55s-1.201,0.601-2.187,0.601c-1.006,0-1.749-0.212-2.228-0.636s-0.719-0.964-0.719-1.62H51.498z"/>
	<path fill="#FFFFFF" d="M60.697,393.654c-0.031-0.238-0.112-0.453-0.241-0.645c-0.188-0.258-0.48-0.387-0.875-0.387
		c-0.564,0-0.95,0.279-1.157,0.838c-0.11,0.296-0.165,0.689-0.165,1.181c0,0.468,0.055,0.844,0.165,1.128
		c0.2,0.531,0.576,0.797,1.127,0.797c0.392,0,0.67-0.105,0.834-0.316c0.165-0.211,0.265-0.484,0.3-0.82h1.705
		c-0.039,0.508-0.223,0.988-0.551,1.441c-0.524,0.73-1.3,1.096-2.329,1.096s-1.785-0.305-2.27-0.914
		c-0.485-0.609-0.728-1.399-0.728-2.37c0-1.096,0.268-1.948,0.804-2.558c0.536-0.609,1.274-0.914,2.217-0.914
		c0.802,0,1.458,0.18,1.968,0.539s0.812,0.994,0.906,1.904H60.697z"/>
</g>
</svg>
