<?xml version="1.0" encoding="utf-8"?>
<!-- Generator: Adobe Illustrator 16.0.0, SVG Export Plug-In . SVG Version: 6.00 Build 0)  -->
<!DOCTYPE svg PUBLIC "-//W3C//DTD SVG 1.1//EN" "http://www.w3.org/Graphics/SVG/1.1/DTD/svg11.dtd">
<svg version="1.1" id="Layer_1" xmlns="http://www.w3.org/2000/svg" xmlns:xlink="http://www.w3.org/1999/xlink" x="0px" y="0px"
	 width="784.336px" height="465px" viewBox="0 0 784.336 465" enable-background="new 0 0 784.336 465" xml:space="preserve">
<g>
	<path fill="#FFFFFF" d="M68.533,98.549v6.43H50.346v47.543h-7.385v-47.543H24.774v-6.43H68.533z"/>
	<path fill="#FFFFFF" d="M74.375,98.366h6.613V118.5c1.567-1.984,2.976-3.38,4.225-4.188c2.131-1.396,4.789-2.094,7.973-2.094
		c5.707,0,9.577,1.997,11.61,5.989c1.102,2.181,1.653,5.206,1.653,9.075v25.242h-6.797v-24.801c0-2.89-0.367-5.009-1.102-6.356
		c-1.2-2.155-3.454-3.233-6.76-3.233c-2.744,0-5.23,0.943-7.459,2.829c-2.229,1.886-3.343,5.45-3.343,10.692v20.869h-6.613V98.366z"
		/>
	<path fill="#FFFFFF" d="M116.224,98.549h6.724v7.496h-6.724V98.549z M116.224,113.356h6.724v39.167h-6.724V113.356z"/>
	<path fill="#FFFFFF" d="M136.873,140.178c0.2,2.205,0.762,3.895,1.687,5.07c1.7,2.131,4.65,3.197,8.851,3.197
		c2.5,0,4.699-0.533,6.6-1.599c1.9-1.065,2.85-2.712,2.85-4.941c0-1.69-0.759-2.976-2.278-3.858
		c-0.971-0.539-2.888-1.163-5.75-1.874l-5.34-1.323c-3.41-0.833-5.924-1.764-7.542-2.792c-2.888-1.788-4.332-4.262-4.332-7.422
		c0-3.723,1.359-6.736,4.077-9.039c2.718-2.302,6.373-3.454,10.965-3.454c6.007,0,10.339,1.739,12.995,5.217
		c1.663,2.205,2.47,4.581,2.421,7.128h-6.246c-0.125-1.486-0.665-2.838-1.617-4.056c-1.555-1.729-4.25-2.594-8.086-2.594
		c-2.558,0-4.495,0.476-5.811,1.428s-1.974,2.209-1.974,3.771c0,1.708,0.865,3.076,2.595,4.101c0.998,0.61,2.47,1.148,4.417,1.613
		l4.455,1.065c4.841,1.152,8.085,2.266,9.733,3.344c2.572,1.69,3.858,4.348,3.858,7.973c0,3.503-1.346,6.528-4.036,9.075
		c-2.691,2.547-6.789,3.821-12.294,3.821c-5.927,0-10.124-1.329-12.591-3.986c-2.467-2.658-3.789-5.946-3.962-9.865H136.873z"/>
	<path fill="#FFFFFF" d="M191.471,98.549h6.724v7.496h-6.724V98.549z M191.471,113.356h6.724v39.167h-6.724V113.356z"/>
	<path fill="#FFFFFF" d="M212.119,140.178c0.2,2.205,0.762,3.895,1.687,5.07c1.7,2.131,4.65,3.197,8.851,3.197
		c2.5,0,4.699-0.533,6.6-1.599c1.9-1.065,2.85-2.712,2.85-4.941c0-1.69-0.759-2.976-2.278-3.858
		c-0.971-0.539-2.888-1.163-5.75-1.874l-5.34-1.323c-3.41-0.833-5.924-1.764-7.542-2.792c-2.888-1.788-4.332-4.262-4.332-7.422
		c0-3.723,1.359-6.736,4.077-9.039c2.718-2.302,6.373-3.454,10.965-3.454c6.007,0,10.339,1.739,12.995,5.217
		c1.663,2.205,2.47,4.581,2.421,7.128h-6.246c-0.125-1.486-0.665-2.838-1.617-4.056c-1.555-1.729-4.25-2.594-8.086-2.594
		c-2.558,0-4.495,0.476-5.811,1.428s-1.974,2.209-1.974,3.771c0,1.708,0.865,3.076,2.595,4.101c0.998,0.61,2.47,1.148,4.417,1.613
		l4.455,1.065c4.841,1.152,8.085,2.266,9.733,3.344c2.572,1.69,3.858,4.348,3.858,7.973c0,3.503-1.346,6.528-4.036,9.075
		c-2.691,2.547-6.789,3.821-12.294,3.821c-5.927,0-10.124-1.329-12.591-3.986c-2.467-2.658-3.789-5.946-3.962-9.865H212.119z"/>
	<path fill="#FFFFFF" d="M266.718,113.173H273v5.584c1.861-2.302,3.833-3.956,5.916-4.96c2.082-1.004,4.396-1.506,6.944-1.506
		c5.585,0,9.356,1.947,11.316,5.842c1.078,2.131,1.617,5.181,1.617,9.148v25.242h-6.724v-24.801c0-2.4-0.355-4.335-1.065-5.805
		c-1.176-2.449-3.307-3.674-6.393-3.674c-1.568,0-2.854,0.16-3.858,0.478c-1.813,0.539-3.405,1.617-4.776,3.233
		c-1.103,1.298-1.819,2.64-2.149,4.023c-0.331,1.384-0.496,3.362-0.496,5.934v20.612h-6.613V113.173z"/>
	<path fill="#FFFFFF" d="M337.078,117.1c3.477,3.377,5.217,8.345,5.217,14.903c0,6.339-1.533,11.576-4.598,15.712
		s-7.818,6.204-14.264,6.204c-5.377,0-9.645-1.829-12.807-5.487c-3.162-3.659-4.742-8.572-4.742-14.739
		c0-6.608,1.666-11.869,4.998-15.785c3.332-3.916,7.807-5.874,13.426-5.874C329.344,112.034,333.6,113.723,337.078,117.1z
		 M332.971,143.252c1.611-3.315,2.416-7.003,2.416-11.064c0-3.669-0.58-6.654-1.744-8.954c-1.84-3.621-5.012-5.431-9.518-5.431
		c-3.996,0-6.902,1.542-8.719,4.624c-1.816,3.083-2.725,6.801-2.725,11.156c0,4.184,0.908,7.67,2.725,10.459
		c1.816,2.789,4.697,4.183,8.646,4.183C328.389,148.224,331.359,146.567,332.971,143.252z"/>
	<path fill="#FFFFFF" d="M351.737,102.187h6.687v10.986h6.283v5.401h-6.283v25.682c0,1.372,0.465,2.291,1.396,2.756
		c0.515,0.27,1.371,0.404,2.572,0.404c0.317,0,0.661-0.008,1.028-0.024s0.796-0.057,1.286-0.123v5.254
		c-0.76,0.22-1.55,0.379-2.37,0.478c-0.821,0.098-1.708,0.147-2.664,0.147c-3.086,0-5.181-0.79-6.282-2.37
		c-1.103-1.58-1.653-3.631-1.653-6.154v-26.05h-5.328v-5.401h5.328V102.187z"/>
	<path fill="#FFFFFF" d="M413.317,128.708c1.519-0.195,2.535-0.831,3.049-1.907c0.294-0.59,0.44-1.438,0.44-2.545
		c0-2.262-0.801-3.903-2.401-4.924c-1.602-1.02-3.894-1.53-6.875-1.53c-3.447,0-5.892,0.936-7.334,2.806
		c-0.807,1.034-1.332,2.573-1.576,4.616h-6.173c0.122-4.864,1.694-8.248,4.716-10.151c3.021-1.903,6.526-2.855,10.514-2.855
		c4.624,0,8.379,0.882,11.267,2.646c2.862,1.764,4.293,4.507,4.293,8.23v22.671c0,0.686,0.141,1.237,0.423,1.653
		c0.281,0.416,0.876,0.624,1.782,0.624c0.294,0,0.624-0.019,0.992-0.055c0.367-0.037,0.759-0.091,1.176-0.165v4.886
		c-1.029,0.294-1.813,0.478-2.352,0.551c-0.539,0.073-1.274,0.11-2.205,0.11c-2.277,0-3.931-0.809-4.96-2.424
		c-0.539-0.857-0.918-2.07-1.139-3.637c-1.348,1.764-3.283,3.294-5.806,4.592c-2.522,1.297-5.303,1.947-8.34,1.947
		c-3.65,0-6.632-1.107-8.946-3.321c-2.315-2.213-3.473-4.984-3.473-8.312c0-3.645,1.139-6.471,3.417-8.477s5.267-3.242,8.965-3.707
		L413.317,128.708z M399.392,146.575c1.396,1.1,3.05,1.649,4.96,1.649c2.327,0,4.58-0.538,6.761-1.614
		c3.674-1.785,5.511-4.708,5.511-8.768v-5.319c-0.807,0.516-1.846,0.946-3.116,1.29c-1.271,0.345-2.519,0.59-3.74,0.736
		l-3.997,0.514c-2.396,0.318-4.197,0.819-5.404,1.503c-2.046,1.149-3.068,2.982-3.068,5.499
		C397.297,143.972,397.995,145.475,399.392,146.575z"/>
</g>
<g>
	<path fill="#FFFFFF" d="M98.856,190.798c6.648,6.421,10.34,13.716,11.074,21.883H97.219c-1.416-6.202-4.236-11.116-8.461-14.742
		c-4.226-3.625-10.156-5.438-17.792-5.438c-9.309,0-16.826,3.333-22.553,10c-5.727,6.667-8.589,16.886-8.589,30.656
		c0,11.28,2.585,20.427,7.756,27.443c5.17,7.017,12.883,10.524,23.138,10.524c9.44,0,16.628-3.69,21.562-11.073
		c2.617-3.887,4.569-8.998,5.857-15.332h12.71c-1.123,10.134-4.836,18.63-11.139,25.487c-7.556,8.256-17.747,12.383-30.57,12.383
		c-11.053,0-20.336-3.386-27.849-10.162c-9.888-8.96-14.831-22.794-14.831-41.501c0-14.205,3.712-25.853,11.138-34.945
		c8.029-9.877,19.103-14.817,33.221-14.817C82.861,181.166,92.208,184.376,98.856,190.798z"/>
	<path fill="#FFFFFF" d="M123.43,183.459h11.794v35.905c2.794-3.538,5.307-6.028,7.535-7.469c3.8-2.49,8.539-3.735,14.218-3.735
		c10.177,0,17.078,3.561,20.704,10.68c1.966,3.888,2.949,9.282,2.949,16.183v45.012h-12.122V235.81
		c0-5.153-0.655-8.932-1.965-11.335c-2.141-3.843-6.159-5.766-12.056-5.766c-4.893,0-9.326,1.682-13.301,5.045
		c-3.975,3.364-5.962,9.72-5.962,19.066v37.215H123.43V183.459z"/>
	<path fill="#FFFFFF" d="M198.384,209.864h11.204v12.121c0.917-2.358,3.167-5.23,6.749-8.616c3.581-3.384,7.709-5.078,12.383-5.078
		c0.218,0,0.589,0.022,1.114,0.065c0.524,0.044,1.419,0.131,2.687,0.262v12.449c-0.7-0.131-1.343-0.218-1.933-0.262
		c-0.59-0.043-1.234-0.065-1.933-0.065c-5.941,0-10.506,1.911-13.694,5.733c-3.189,3.823-4.783,8.223-4.783,13.202v40.36h-11.794
		V209.864z"/>
	<path fill="#FFFFFF" d="M293.585,216.867c6.202,6.023,9.304,14.881,9.304,26.577c0,11.304-2.733,20.644-8.198,28.019
		s-13.944,11.062-25.438,11.062c-9.586,0-17.198-3.262-22.837-9.786s-8.457-15.286-8.457-26.284c0-11.783,2.971-21.166,8.913-28.149
		c5.942-6.982,13.923-10.474,23.942-10.474C279.792,207.833,287.382,210.845,293.585,216.867z M286.262,263.503
		c2.873-5.911,4.309-12.488,4.309-19.73c0-6.544-1.037-11.866-3.11-15.967c-3.282-6.457-8.94-9.686-16.974-9.686
		c-7.127,0-12.31,2.749-15.548,8.246c-3.239,5.498-4.859,12.128-4.859,19.894c0,7.461,1.62,13.677,4.859,18.65
		c3.239,4.974,8.378,7.46,15.419,7.46C278.088,272.37,283.389,269.414,286.262,263.503z"/>
	<path fill="#FFFFFF" d="M317.368,209.864h11.663v9.959c2.795-3.45,5.328-5.962,7.6-7.535c3.888-2.664,8.299-3.997,13.235-3.997
		c5.591,0,10.09,1.376,13.497,4.127c1.922,1.573,3.669,3.888,5.241,6.945c2.621-3.756,5.7-6.541,9.238-8.354
		c3.538-1.812,7.513-2.719,11.925-2.719c9.435,0,15.856,3.407,19.263,10.221c1.835,3.669,2.752,8.605,2.752,14.807v46.716H399.53
		v-48.747c0-4.674-1.169-7.884-3.505-9.632c-2.338-1.746-5.188-2.621-8.551-2.621c-4.631,0-8.616,1.551-11.957,4.652
		c-3.342,3.102-5.013,8.278-5.013,15.528v40.819h-11.99v-45.798c0-4.76-0.568-8.233-1.703-10.417
		c-1.792-3.276-5.133-4.914-10.024-4.914c-4.456,0-8.508,1.726-12.154,5.176c-3.647,3.451-5.471,9.697-5.471,18.739v37.215h-11.794
		V209.864z"/>
	<path fill="#FFFFFF" d="M472.489,211.797c4.645,2.337,8.183,5.362,10.614,9.074c2.344,3.538,3.906,7.666,4.688,12.383
		c0.694,3.233,1.042,8.387,1.042,15.463h-51.04c0.218,7.14,1.886,12.867,5.007,17.182c3.12,4.314,7.952,6.471,14.496,6.471
		c6.11,0,10.986-2.04,14.627-6.121c2.037-2.369,3.48-5.112,4.331-8.228h11.597c-0.307,2.578-1.321,5.449-3.047,8.616
		c-1.726,3.167-3.65,5.756-5.773,7.764c-3.556,3.495-7.956,5.853-13.2,7.076c-2.818,0.698-6.005,1.048-9.56,1.048
		c-8.681,0-16.039-3.178-22.072-9.533c-6.034-6.355-9.05-15.255-9.05-26.699c0-11.27,3.038-20.42,9.116-27.453
		c6.077-7.032,14.021-10.549,23.833-10.549C463.047,208.292,467.844,209.46,472.489,211.797z M476.713,239.348
		c-0.477-5.11-1.581-9.194-3.313-12.252c-3.205-5.678-8.555-8.518-16.048-8.518c-5.37,0-9.875,1.955-13.513,5.864
		c-3.639,3.91-5.566,8.878-5.782,14.906H476.713z"/>
	<path fill="#FFFFFF" d="M32.027,318.809h69.844v11.793H44.738v29.222h52.809v11.139H44.738v32.629h58.116v11.466H32.027V318.809z"
		/>
	<path fill="#FFFFFF" d="M112.027,344.886h15.266l16.118,24.701l16.314-24.701l14.349,0.328l-23.652,33.874l24.701,35.97h-15.069
		l-17.428-26.339l-16.904,26.339h-14.938l24.701-35.97L112.027,344.886z"/>
	<path fill="#FFFFFF" d="M184.819,345.213h11.531v9.304c2.365-3.188,4.949-5.656,7.752-7.403c3.984-2.621,8.67-3.932,14.057-3.932
		c7.971,0,14.737,3.047,20.299,9.14c5.561,6.093,8.342,14.797,8.342,26.11c0,15.289-4.013,26.208-12.037,32.76
		c-5.087,4.148-11.007,6.224-17.76,6.224c-5.306,0-9.757-1.157-13.353-3.473c-2.104-1.31-4.451-3.56-7.038-6.748v35.839h-11.793
		V345.213z M229.19,400.218c3.659-4.608,5.489-11.499,5.489-20.672c0-5.591-0.811-10.395-2.432-14.415
		c-3.068-7.731-8.679-11.597-16.831-11.597c-8.196,0-13.806,4.084-16.831,12.252c-1.622,4.368-2.432,9.916-2.432,16.642
		c0,5.417,0.811,10.024,2.432,13.825c3.067,7.251,8.677,10.876,16.831,10.876C220.939,407.13,225.53,404.826,229.19,400.218z"/>
	<path fill="#FFFFFF" d="M303.773,346.819c4.645,2.337,8.182,5.362,10.614,9.074c2.344,3.538,3.906,7.666,4.689,12.383
		c0.693,3.233,1.041,8.387,1.041,15.463h-51.039c0.217,7.14,1.886,12.867,5.006,17.182c3.121,4.313,7.953,6.471,14.497,6.471
		c6.11,0,10.987-2.04,14.627-6.121c2.038-2.369,3.48-5.111,4.332-8.228h11.596c-0.307,2.578-1.32,5.449-3.047,8.616
		c-1.725,3.167-3.65,5.755-5.773,7.764c-3.555,3.495-7.956,5.853-13.2,7.076c-2.818,0.698-6.004,1.049-9.559,1.049
		c-8.682,0-16.039-3.178-22.073-9.533c-6.034-6.355-9.05-15.255-9.05-26.7c0-11.27,3.039-20.42,9.117-27.453
		c6.077-7.032,14.021-10.549,23.833-10.549C294.331,343.313,299.127,344.482,303.773,346.819z M307.996,374.37
		c-0.477-5.11-1.58-9.194-3.313-12.252c-3.206-5.678-8.555-8.518-16.047-8.518c-5.371,0-9.875,1.955-13.514,5.864
		c-3.638,3.91-5.566,8.878-5.782,14.906H307.996z"/>
	<path fill="#FFFFFF" d="M332.7,344.886h11.203v12.121c0.918-2.358,3.167-5.23,6.749-8.616c3.581-3.384,7.709-5.078,12.383-5.078
		c0.219,0,0.59,0.022,1.114,0.065c0.524,0.044,1.419,0.131,2.687,0.262v12.449c-0.699-0.131-1.344-0.218-1.933-0.262
		c-0.59-0.043-1.235-0.065-1.934-0.065c-5.94,0-10.506,1.911-13.693,5.733c-3.189,3.823-4.783,8.223-4.783,13.202v40.36H332.7
		V344.886z"/>
	<path fill="#FFFFFF" d="M374.373,318.809h11.99v13.366h-11.99V318.809z M374.373,345.213h11.99v69.844h-11.99V345.213z"/>
	<path fill="#FFFFFF" d="M401.501,344.886h11.663v9.959c2.795-3.45,5.328-5.962,7.6-7.535c3.888-2.664,8.299-3.997,13.235-3.997
		c5.591,0,10.09,1.376,13.497,4.127c1.922,1.573,3.669,3.888,5.241,6.945c2.621-3.756,5.7-6.541,9.238-8.354
		c3.538-1.812,7.513-2.719,11.925-2.719c9.435,0,15.856,3.407,19.263,10.221c1.835,3.669,2.752,8.605,2.752,14.807v46.716h-12.252
		v-48.747c0-4.674-1.169-7.884-3.505-9.632c-2.338-1.746-5.188-2.621-8.551-2.621c-4.631,0-8.616,1.551-11.957,4.652
		c-3.342,3.102-5.013,8.278-5.013,15.528v40.819h-11.99v-45.798c0-4.76-0.568-8.233-1.703-10.417
		c-1.792-3.276-5.133-4.914-10.024-4.914c-4.456,0-8.508,1.726-12.154,5.176c-3.647,3.451-5.471,9.697-5.471,18.739v37.215h-11.794
		V344.886z"/>
	<path fill="#FFFFFF" d="M553.938,346.819c4.645,2.337,8.183,5.362,10.614,9.074c2.344,3.538,3.906,7.666,4.688,12.383
		c0.694,3.233,1.042,8.387,1.042,15.463h-51.04c0.218,7.14,1.886,12.867,5.007,17.182c3.12,4.313,7.952,6.471,14.496,6.471
		c6.11,0,10.986-2.04,14.627-6.121c2.037-2.369,3.48-5.111,4.331-8.228H569.3c-0.307,2.578-1.321,5.449-3.047,8.616
		s-3.65,5.755-5.773,7.764c-3.556,3.495-7.956,5.853-13.2,7.076c-2.818,0.698-6.005,1.049-9.56,1.049
		c-8.681,0-16.039-3.178-22.072-9.533c-6.034-6.355-9.05-15.255-9.05-26.7c0-11.27,3.038-20.42,9.116-27.453
		c6.077-7.032,14.021-10.549,23.833-10.549C544.495,343.313,549.292,344.482,553.938,346.819z M558.161,374.37
		c-0.477-5.11-1.581-9.194-3.313-12.252c-3.205-5.678-8.555-8.518-16.048-8.518c-5.37,0-9.875,1.955-13.513,5.864
		c-3.639,3.91-5.566,8.878-5.782,14.906H558.161z"/>
	<path fill="#FFFFFF" d="M582.537,344.886h11.204v9.959c3.319-4.105,6.836-7.054,10.549-8.845c3.712-1.791,7.84-2.686,12.383-2.686
		c9.959,0,16.686,3.473,20.181,10.417c1.921,3.8,2.883,9.238,2.883,16.314v45.012h-11.99v-44.226c0-4.28-0.634-7.731-1.9-10.352
		c-2.097-4.367-5.896-6.552-11.4-6.552c-2.796,0-5.089,0.285-6.88,0.852c-3.232,0.961-6.071,2.883-8.518,5.766
		c-1.965,2.316-3.243,4.708-3.832,7.175c-0.59,2.468-0.885,5.995-0.885,10.581v36.757h-11.794V344.886z"/>
	<path fill="#FFFFFF" d="M656.84,325.295h11.924v19.59h11.204v9.631h-11.204v45.798c0,2.447,0.829,4.085,2.49,4.914
		c0.917,0.481,2.445,0.721,4.586,0.721c0.567,0,1.18-0.015,1.835-0.043s1.419-0.103,2.293-0.219v9.369
		c-1.354,0.394-2.763,0.677-4.226,0.852c-1.464,0.174-3.047,0.263-4.751,0.263c-5.503,0-9.238-1.409-11.203-4.227
		c-1.966-2.817-2.948-6.475-2.948-10.975v-46.454h-9.501v-9.631h9.501V325.295z"/>
</g>
</svg>
