<?xml version="1.0" encoding="utf-8"?>
<!-- Generator: Adobe Illustrator 16.0.0, SVG Export Plug-In . SVG Version: 6.00 Build 0)  -->
<!DOCTYPE svg PUBLIC "-//W3C//DTD SVG 1.1//EN" "http://www.w3.org/Graphics/SVG/1.1/DTD/svg11.dtd">
<svg version="1.1" id="svg3010" xmlns:svg="http://www.w3.org/2000/svg"
	 xmlns="http://www.w3.org/2000/svg" xmlns:xlink="http://www.w3.org/1999/xlink" x="0px" y="0px" width="443px" height="458px"
	 viewBox="248.5 0 443 458" enable-background="new 248.5 0 443 458" xml:space="preserve">
<g id="ogoDLS.tif">
	<g>
		<path fill-rule="evenodd" clip-rule="evenodd" fill="#FFFFFF" d="M491.714,286.205c4.44-0.808,8.871-1.397,13.186-2.461
			c4.441-1.093,8.896-2.339,13.124-4.06c19.151-7.792,28.929-22.763,31.95-42.657c1.272-8.383,1.813-16.805,0.28-25.25
			c-1.583-8.726-5.188-16.496-10.943-23.21c-1.336-1.558-1.445-2.798-0.886-4.719c2.975-10.176,2.042-20.207-1.459-30.116
			c-0.604-1.708-1.575-2.224-3.242-2.203c-6.303,0.076-12.145,2.008-17.706,4.691c-4.688,2.261-9.09,5.105-13.736,7.458
			c-1.411,0.715-3.348,1.216-4.817,0.863c-20.383-4.902-40.716-4.888-61.094,0.03c-1.386,0.334-3.298-0.038-4.533-0.791
			c-8.675-5.292-17.465-10.245-27.68-11.944c-0.205-0.035-0.408-0.085-0.615-0.115c-5.335-0.779-5.954-0.427-7.491,4.779
			c-2.781,9.418-3.267,18.862-0.304,28.366c0.251,0.805,0.063,2.129-0.466,2.738c-11.76,13.505-14.139,29.436-11.701,46.413
			c0.883,6.143,2.338,12.349,4.565,18.128c6.648,17.255,20.32,26.432,37.589,30.915c5.329,1.386,10.8,2.214,16.629,3.383
			c-4.408,4.726-6.716,10.287-7.813,16.424c-0.104,0.586-1.082,1.201-1.781,1.47c-13.969,5.374-27.681,3.251-36.406-11.162
			c-4.157-6.866-9.853-11.927-17.973-13.482c-2.069-0.396-4.363-0.145-6.462,0.271c-2.276,0.452-2.468,2.104-1.052,3.734
			c1.016,1.169,2.195,2.291,3.514,3.082c7.044,4.226,11.497,10.579,14.508,17.955c4.924,12.06,14.405,17.52,26.738,18.411
			c5.975,0.433,12.037-0.361,18.276-0.606c0.032,0.362,0.157,1.165,0.164,1.966c0.056,6.894,0.113,13.784,0.125,20.678
			c0.009,5.899-4.022,9.162-9.494,6.916c-8.849-3.632-17.931-7.102-26.034-12.075c-36.427-22.354-57.885-54.947-62.712-97.449
			c-7.508-66.103,36.282-126.738,101.367-141.629c64.866-14.84,130.809,20.713,153.645,82.839
			c25.125,68.352-11.767,145.115-80.817,168.164c-6.582,2.196-10.388-0.503-10.381-7.412c0.009-9.713,0.064-19.425,0.081-29.136
			C499.882,300.231,499.469,298.77,491.714,286.205z"/>
		<path fill-rule="evenodd" clip-rule="evenodd" fill="#FFFFFF" d="M423.482,311.708c-1.033,0.456-2.123,1.356-3.085,1.234
			c-0.936-0.117-1.738-1.284-2.6-1.99c0.992-0.55,1.957-1.457,2.987-1.541c0.864-0.071,1.807,0.819,2.714,1.283
			C423.493,311.033,423.488,311.371,423.482,311.708z"/>
		<path fill-rule="evenodd" clip-rule="evenodd" fill="#FFFFFF" d="M404.127,304.738c-1.562,0.89-2.55,1.77-2.864,1.572
			c-1.104-0.691-2.021-1.717-2.857-2.738c-0.069-0.086,1.258-1.675,1.473-1.575C401.128,302.585,402.241,303.465,404.127,304.738z"
			/>
		<path fill-rule="evenodd" clip-rule="evenodd" fill="#FFFFFF" d="M409.877,312.102c-1.098-1.208-1.914-2.106-2.73-3.004
			c0.759-0.516,1.755-1.62,2.228-1.43c1.156,0.466,2.07,1.533,3.081,2.358C411.74,310.602,411.025,311.178,409.877,312.102z"/>
		<path fill-rule="evenodd" clip-rule="evenodd" fill="#FFFFFF" d="M430.832,307.333c1.08,0.978,1.772,1.606,2.465,2.234
			c-1.081,0.763-2.08,1.78-3.282,2.162c-0.49,0.156-1.42-1.067-2.149-1.666C428.762,309.239,429.658,308.414,430.832,307.333z"/>
		<path fill-rule="evenodd" clip-rule="evenodd" fill="#FFFFFF" d="M394.573,299.909c-1.127-1.721-1.958-2.671-2.353-3.779
			c-0.12-0.337,0.964-1.102,1.497-1.671c0.79,0.947,1.71,1.827,2.291,2.891C396.18,297.662,395.394,298.5,394.573,299.909z"/>
		<path fill-rule="evenodd" clip-rule="evenodd" fill="#FFFFFF" d="M391.509,290.032c-1.139,0.724-1.909,1.454-2.132,1.312
			c-0.869-0.548-1.638-1.314-2.253-2.141c-0.109-0.148,0.949-1.451,1.029-1.408C389.148,288.336,390.061,289.025,391.509,290.032z"
			/>
	</g>
</g>
</svg>
