<?xml version="1.0" encoding="utf-8"?>
<!-- Generator: Adobe Illustrator 16.0.0, SVG Export Plug-In . SVG Version: 6.00 Build 0)  -->
<!DOCTYPE svg PUBLIC "-//W3C//DTD SVG 1.1//EN" "http://www.w3.org/Graphics/SVG/1.1/DTD/svg11.dtd">
<svg version="1.1" id="svg3010" xmlns:svg="http://www.w3.org/2000/svg"
	 xmlns="http://www.w3.org/2000/svg" xmlns:xlink="http://www.w3.org/1999/xlink" x="0px" y="0px" width="45px" height="42.5px"
	 viewBox="30.25 374 45 42.5" enable-background="new 30.25 374 45 42.5" xml:space="preserve">
<g>
	<path fill="#FFFFFF" d="M45.117,392.166c0,0,0-5.286,0-7.166c0-1.881-1.677-2.236-1.677-2.236s-4.523,0-7.37,0
		c-2.847,0-2.542,2.795-2.542,2.795s-0.009,4.168-0.009,6.455s2.144,2.49,2.144,2.49s4.219,0,6.861,0
		C45.168,394.504,45.117,392.166,45.117,392.166z M42.075,393.68c-2.272,0-5.898,0-5.898,0s-1.843-0.175-1.843-2.141
		s0.008-5.548,0.008-5.548s-0.262-2.403,2.185-2.403s6.335,0,6.335,0s1.441,0.306,1.441,1.922c0,1.617,0,6.16,0,6.16
		S44.347,393.68,42.075,393.68z"/>
	<path fill="#FFFFFF" d="M42.525,394.837l-6.893-0.002c-0.845-0.081-2.445-0.773-2.445-2.821c0-2.205,0.009-6.155,0.01-6.44
		c-0.016-0.181-0.093-1.42,0.693-2.298c0.503-0.56,1.237-0.845,2.181-0.845h7.404l0.034,0.007c0.671,0.143,1.941,0.861,1.941,2.562
		v7.167c0.001,0.037,0.014,1.096-0.749,1.876C44.186,394.569,43.453,394.837,42.525,394.837z M35.681,394.172h6.844
		c0.743,0,1.315-0.2,1.701-0.595c0.57-0.583,0.559-1.396,0.559-1.403V385c0-1.469-1.174-1.848-1.385-1.904h-7.33
		c-0.745,0-1.312,0.208-1.683,0.621c-0.635,0.704-0.53,1.795-0.529,1.807l0.002,0.036c0,0-0.009,4.168-0.009,6.454
		C33.852,393.907,35.498,394.15,35.681,394.172z M42.075,394.012l-5.929-0.001c-0.741-0.07-2.144-0.677-2.144-2.472
		c0-1.891,0.008-5.273,0.008-5.533c-0.014-0.169-0.077-1.244,0.608-2.009c0.441-0.492,1.084-0.741,1.909-0.741h6.37l0.034,0.007
		c0.589,0.125,1.705,0.756,1.705,2.247v6.16c0,0.032,0.013,0.961-0.657,1.646C43.526,393.777,42.885,394.012,42.075,394.012z
		 M36.194,393.348h5.88c0.625,0,1.106-0.167,1.429-0.497c0.469-0.479,0.468-1.167,0.467-1.174v-6.167c0-1.215-0.962-1.538-1.15-1.59
		h-6.294c-0.628,0-1.104,0.175-1.414,0.521c-0.525,0.586-0.441,1.505-0.44,1.515l0.002,0.018v0.019c0,0-0.008,3.582-0.008,5.548
		C34.666,393.119,36.032,393.328,36.194,393.348z"/>
</g>
<g>
	<path fill="#FFFFFF" d="M58.626,392.166c0,0,0-5.286,0-7.166c0-1.881-1.677-2.236-1.677-2.236s-4.523,0-7.37,0
		s-2.542,2.795-2.542,2.795s-0.009,4.168-0.009,6.455s2.144,2.49,2.144,2.49s4.218,0,6.862,0
		C58.677,394.504,58.626,392.166,58.626,392.166z M55.583,393.68c-2.271,0-5.898,0-5.898,0s-1.843-0.175-1.843-2.141
		s0.008-5.548,0.008-5.548s-0.262-2.403,2.185-2.403c2.447,0,6.335,0,6.335,0s1.441,0.306,1.441,1.922c0,1.617,0,6.16,0,6.16
		S57.855,393.68,55.583,393.68z"/>
	<path fill="#FFFFFF" d="M56.034,394.837l-6.893-0.002c-0.846-0.081-2.445-0.773-2.445-2.821c0-2.205,0.009-6.155,0.01-6.44
		c-0.016-0.181-0.093-1.42,0.693-2.298c0.503-0.56,1.237-0.845,2.18-0.845h7.405l0.034,0.007c0.671,0.143,1.94,0.861,1.94,2.562
		v7.167c0,0.037,0.015,1.096-0.749,1.876C57.694,394.569,56.962,394.837,56.034,394.837z M49.19,394.172h6.844
		c0.743,0,1.315-0.2,1.701-0.595c0.57-0.583,0.559-1.396,0.559-1.403V385c0-0.672-0.239-1.197-0.709-1.562
		c-0.292-0.226-0.585-0.318-0.676-0.343h-7.329c-0.747,0-1.314,0.21-1.686,0.624c-0.637,0.71-0.526,1.792-0.525,1.803l0.002,0.037
		c0,0-0.01,4.168-0.01,6.454C47.36,393.907,49.007,394.15,49.19,394.172z M55.583,394.012l-5.929-0.001
		c-0.742-0.07-2.144-0.677-2.144-2.472c0-1.891,0.007-5.273,0.008-5.533c-0.015-0.169-0.078-1.244,0.607-2.009
		c0.441-0.492,1.083-0.741,1.909-0.741h6.37l0.034,0.007c0.589,0.125,1.705,0.756,1.705,2.247v6.16
		c0.001,0.032,0.013,0.961-0.656,1.646C57.035,393.777,56.394,394.012,55.583,394.012z M49.703,393.348h5.881
		c0.625,0,1.106-0.167,1.428-0.497c0.469-0.479,0.467-1.167,0.467-1.174v-6.167c0-1.215-0.962-1.538-1.15-1.59h-6.294
		c-0.628,0-1.104,0.175-1.414,0.521c-0.525,0.586-0.441,1.505-0.44,1.515l0.002,0.036c0,0-0.008,3.582-0.008,5.548
		C48.175,393.119,49.541,393.328,49.703,393.348z"/>
</g>
<g>
	<path fill="#FFFFFF" d="M71.98,392.166c0,0,0-5.286,0-7.166c0-1.881-1.677-2.236-1.677-2.236s-4.524,0-7.37,0
		s-2.542,2.795-2.542,2.795s-0.01,4.168-0.01,6.455s2.145,2.49,2.145,2.49s4.218,0,6.862,0
		C72.031,394.504,71.98,392.166,71.98,392.166z M68.938,393.68c-2.271,0-5.898,0-5.898,0s-1.843-0.175-1.843-2.141
		s0.008-5.548,0.008-5.548s-0.262-2.403,2.184-2.403c2.447,0,6.334,0,6.334,0s1.442,0.306,1.442,1.922c0,1.617,0,6.16,0,6.16
		S71.21,393.68,68.938,393.68z"/>
	<path fill="#FFFFFF" d="M69.389,394.837l-6.893-0.002c-0.846-0.081-2.445-0.773-2.445-2.821c0-2.205,0.009-6.155,0.01-6.44
		c-0.016-0.181-0.094-1.42,0.693-2.298c0.503-0.56,1.237-0.845,2.181-0.845h7.405l0.034,0.007c0.671,0.143,1.94,0.861,1.94,2.562
		v7.167c0.001,0.037,0.015,1.096-0.749,1.876C71.048,394.569,70.316,394.837,69.389,394.837z M62.544,394.172h6.844
		c0.743,0,1.315-0.2,1.701-0.595c0.57-0.583,0.559-1.396,0.559-1.403V385c0-1.469-1.174-1.848-1.385-1.904h-7.33
		c-0.747,0-1.314,0.21-1.686,0.624c-0.637,0.71-0.526,1.792-0.525,1.804l0.002,0.036c0,0-0.01,4.168-0.01,6.454
		C60.715,393.907,62.362,394.15,62.544,394.172z M68.938,394.012l-5.929-0.001c-0.742-0.07-2.145-0.677-2.145-2.472
		c0-1.891,0.008-5.273,0.009-5.533c-0.015-0.169-0.078-1.244,0.607-2.009c0.442-0.492,1.084-0.741,1.909-0.741h6.37l0.034,0.007
		c0.589,0.125,1.705,0.756,1.705,2.247v6.16c0.001,0.032,0.013,0.961-0.656,1.646C70.39,393.777,69.749,394.012,68.938,394.012z
		 M63.058,393.348h5.88c0.625,0,1.106-0.167,1.429-0.497c0.469-0.479,0.467-1.167,0.467-1.174v-6.167c0-1.215-0.962-1.538-1.15-1.59
		H63.39c-0.628,0-1.104,0.175-1.414,0.521c-0.525,0.586-0.441,1.505-0.44,1.515l0.002,0.036c0,0-0.008,3.582-0.008,5.548
		C61.529,393.119,62.895,393.328,63.058,393.348z"/>
</g>
<g>
	<path fill="#FFFFFF" d="M45.117,405.399c0,0,0-5.286,0-7.167s-1.677-2.236-1.677-2.236s-4.523,0-7.37,0
		c-2.847,0-2.542,2.795-2.542,2.795s-0.009,4.169-0.009,6.455c0,2.288,2.144,2.491,2.144,2.491s4.219,0,6.861,0
		C45.168,407.737,45.117,405.399,45.117,405.399z M42.075,406.912c-2.272,0-5.898,0-5.898,0s-1.843-0.175-1.843-2.141
		s0.008-5.548,0.008-5.548s-0.262-2.403,2.185-2.403s6.335,0,6.335,0s1.441,0.306,1.441,1.923c0,1.616,0,6.159,0,6.159
		S44.347,406.912,42.075,406.912z"/>
	<path fill="#FFFFFF" d="M42.525,408.069l-6.893-0.002c-0.845-0.079-2.445-0.772-2.445-2.821c0-2.204,0.009-6.155,0.01-6.438
		c-0.016-0.182-0.093-1.422,0.693-2.298c0.503-0.562,1.237-0.847,2.18-0.847h7.405l0.034,0.009c0.671,0.142,1.941,0.859,1.941,2.561
		v7.167c0,0.037,0.014,1.096-0.749,1.875C44.186,407.802,43.453,408.069,42.525,408.069z M35.681,407.404h6.844
		c0.74,0,1.311-0.198,1.696-0.589c0.569-0.576,0.564-1.402,0.564-1.41v-7.173c0-0.672-0.239-1.197-0.71-1.56
		c-0.292-0.227-0.586-0.319-0.676-0.345H36.07c-0.747,0-1.314,0.211-1.686,0.625c-0.636,0.709-0.527,1.792-0.526,1.803l0.002,0.019
		v0.018c0,0-0.009,4.168-0.009,6.454C33.852,407.141,35.498,407.384,35.681,407.404z M42.075,407.244l-5.929-0.001
		c-0.741-0.07-2.144-0.677-2.144-2.472c0-1.889,0.008-5.272,0.008-5.533c-0.014-0.168-0.077-1.244,0.608-2.008
		c0.441-0.492,1.084-0.742,1.909-0.742h6.37l0.034,0.007c0.589,0.126,1.705,0.756,1.705,2.248v6.159
		c0,0.032,0.013,0.961-0.657,1.646C43.526,407.01,42.885,407.244,42.075,407.244z M36.194,406.58h5.88
		c0.625,0,1.106-0.167,1.429-0.496c0.469-0.479,0.468-1.167,0.467-1.174v-6.167c0-1.216-0.962-1.538-1.15-1.59h-6.294
		c-0.628,0-1.104,0.175-1.414,0.521c-0.525,0.584-0.441,1.504-0.44,1.513l0.002,0.018v0.02c0,0-0.008,3.581-0.008,5.547
		C34.666,406.353,36.032,406.562,36.194,406.58z"/>
</g>
<g>
	<path fill="#FFFFFF" d="M58.626,405.399c0,0,0-5.286,0-7.167s-1.677-2.236-1.677-2.236s-4.523,0-7.37,0s-2.542,2.795-2.542,2.795
		s-0.009,4.169-0.009,6.455c0,2.288,2.144,2.491,2.144,2.491s4.218,0,6.862,0C58.677,407.737,58.626,405.399,58.626,405.399z
		 M55.583,406.912c-2.271,0-5.898,0-5.898,0s-1.843-0.175-1.843-2.141s0.008-5.548,0.008-5.548s-0.262-2.403,2.185-2.403
		c2.447,0,6.335,0,6.335,0s1.441,0.306,1.441,1.923c0,1.616,0,6.159,0,6.159S57.855,406.912,55.583,406.912z"/>
	<path fill="#FFFFFF" d="M56.034,408.069l-6.893-0.002c-0.846-0.079-2.445-0.772-2.445-2.821c0-2.204,0.009-6.155,0.01-6.438
		c-0.016-0.182-0.093-1.422,0.693-2.298c0.503-0.562,1.237-0.847,2.18-0.847h7.405l0.034,0.009c0.671,0.142,1.94,0.859,1.94,2.561
		v7.167c0,0.037,0.015,1.096-0.749,1.875C57.694,407.802,56.962,408.069,56.034,408.069z M49.19,407.404h6.844
		c0.74,0,1.31-0.198,1.696-0.589c0.569-0.576,0.564-1.402,0.564-1.41v-7.173c0-1.468-1.174-1.848-1.385-1.904h-7.33
		c-0.745,0-1.312,0.21-1.683,0.621c-0.634,0.704-0.529,1.797-0.528,1.808l0.002,0.035c0,0-0.01,4.168-0.01,6.454
		C47.36,407.141,49.007,407.384,49.19,407.404z M55.583,407.244l-5.929-0.001c-0.742-0.07-2.144-0.677-2.144-2.472
		c0-1.889,0.007-5.272,0.008-5.533c-0.015-0.168-0.078-1.244,0.607-2.008c0.441-0.492,1.083-0.742,1.909-0.742h6.37l0.034,0.007
		c0.589,0.126,1.705,0.756,1.705,2.248v6.159c0.001,0.032,0.013,0.961-0.656,1.646C57.035,407.01,56.394,407.244,55.583,407.244z
		 M49.704,406.58h5.88c0.625,0,1.106-0.167,1.428-0.496c0.469-0.479,0.467-1.167,0.467-1.174v-6.167c0-1.216-0.962-1.538-1.15-1.59
		h-6.294c-0.626,0-1.101,0.174-1.411,0.519c-0.532,0.588-0.444,1.508-0.443,1.517l0.002,0.036c0,0-0.008,3.581-0.008,5.547
		C48.175,406.334,49.491,406.556,49.704,406.58z"/>
</g>
<g>
	<path fill="#FFFFFF" d="M71.98,405.399c0,0,0-5.286,0-7.167s-1.677-2.236-1.677-2.236s-4.524,0-7.37,0s-2.542,2.795-2.542,2.795
		s-0.01,4.169-0.01,6.455c0,2.288,2.145,2.491,2.145,2.491s4.218,0,6.862,0C72.031,407.737,71.98,405.399,71.98,405.399z
		 M68.938,406.912c-2.271,0-5.898,0-5.898,0s-1.843-0.175-1.843-2.141s0.008-5.548,0.008-5.548s-0.262-2.403,2.184-2.403
		c2.447,0,6.334,0,6.334,0s1.442,0.306,1.442,1.923c0,1.616,0,6.159,0,6.159S71.21,406.912,68.938,406.912z"/>
	<path fill="#FFFFFF" d="M69.389,408.069l-6.893-0.002c-0.846-0.079-2.445-0.772-2.445-2.821c0-2.204,0.009-6.155,0.01-6.438
		c-0.016-0.182-0.094-1.422,0.693-2.298c0.503-0.562,1.237-0.847,2.181-0.847h7.405l0.034,0.009c0.671,0.142,1.94,0.859,1.94,2.561
		v7.167c0.001,0.037,0.015,1.096-0.749,1.875C71.049,407.802,70.316,408.069,69.389,408.069z M62.544,407.404h6.844
		c0.739,0,1.31-0.198,1.696-0.589c0.569-0.576,0.564-1.402,0.564-1.41v-7.173c0-0.672-0.239-1.197-0.709-1.56
		c-0.292-0.227-0.586-0.319-0.676-0.345h-7.329c-0.745,0-1.311,0.21-1.683,0.621c-0.635,0.704-0.529,1.797-0.528,1.807l0.002,0.036
		c0,0-0.01,4.168-0.01,6.454C60.715,407.141,62.362,407.384,62.544,407.404z M68.938,407.244l-5.929-0.001
		c-0.742-0.07-2.145-0.677-2.145-2.472c0-1.889,0.008-5.272,0.009-5.533c-0.015-0.168-0.078-1.244,0.607-2.008
		c0.442-0.492,1.084-0.742,1.909-0.742h6.37l0.034,0.007c0.59,0.126,1.705,0.756,1.705,2.248v6.159
		c0.001,0.032,0.013,0.961-0.656,1.646C70.39,407.01,69.749,407.244,68.938,407.244z M63.058,406.58h5.88
		c0.625,0,1.106-0.167,1.429-0.496c0.469-0.479,0.467-1.167,0.467-1.174v-6.167c0-1.216-0.962-1.538-1.15-1.59H63.39
		c-0.626,0-1.101,0.174-1.411,0.519c-0.532,0.588-0.444,1.508-0.443,1.517l0.001,0.036c0,0-0.008,3.581-0.008,5.547
		C61.529,406.353,62.895,406.562,63.058,406.58z"/>
</g>
<g>
	<path fill="#FFFFFF" d="M41.578,389.752c-0.096,0.314-0.238,0.575-0.425,0.782l0.628,0.59l-0.596,0.622l-0.657-0.623
		c-0.2,0.122-0.374,0.208-0.52,0.257c-0.245,0.083-0.539,0.123-0.88,0.123c-0.713,0-1.302-0.213-1.767-0.638
		c-0.564-0.513-0.846-1.264-0.846-2.255c0-0.999,0.29-1.754,0.868-2.267c0.473-0.417,1.06-0.627,1.762-0.627
		c0.707,0,1.3,0.222,1.78,0.664c0.554,0.513,0.83,1.228,0.83,2.148C41.755,389.016,41.696,389.423,41.578,389.752z M39.505,390.486
		c0.067-0.017,0.152-0.048,0.256-0.092l-0.553-0.526l0.587-0.613l0.555,0.523c0.086-0.178,0.147-0.334,0.182-0.468
		c0.054-0.2,0.082-0.434,0.082-0.7c0-0.613-0.125-1.087-0.376-1.423c-0.251-0.335-0.617-0.502-1.1-0.502
		c-0.453,0-0.813,0.16-1.083,0.482c-0.27,0.321-0.405,0.802-0.405,1.442c0,0.75,0.193,1.286,0.579,1.609
		c0.25,0.211,0.549,0.315,0.898,0.315C39.258,390.535,39.384,390.519,39.505,390.486z"/>
</g>
<g>
	<path fill="#FFFFFF" d="M50.581,386.105l0.722,3.131l0.158,0.871l0.157-0.854l0.618-3.148h1.205l0.649,3.131l0.167,0.871
		l0.169-0.838l0.729-3.163h1.163l-1.538,5.466h-1.094l-0.66-3.196l-0.193-1.058l-0.193,1.058l-0.66,3.196h-1.061l-1.55-5.466
		L50.581,386.105L50.581,386.105z"/>
</g>
<g>
	<path fill="#FFFFFF" d="M68.108,386.963h-2.893v1.161h2.655v0.949h-2.655v1.405h3.026v0.983h-4.143v-5.467h4.009V386.963z"/>
</g>
<g>
	<path fill="#FFFFFF" d="M67.158,399.124c0.383,0.126,0.694,0.357,0.932,0.693c0.19,0.272,0.32,0.566,0.39,0.883
		c0.07,0.316,0.104,0.618,0.104,0.904c0,0.728-0.146,1.344-0.438,1.848c-0.396,0.68-1.007,1.02-1.834,1.02h-2.356v-5.467h2.356
		C66.651,399.011,66.933,399.05,67.158,399.124z M65.064,399.955v3.567h1.055c0.54,0,0.917-0.266,1.129-0.797
		c0.117-0.292,0.175-0.64,0.175-1.042c0-0.557-0.087-0.984-0.262-1.282c-0.174-0.298-0.522-0.446-1.042-0.446H65.064L65.064,399.955
		z"/>
</g>
<g>
	<path fill="#FFFFFF" d="M51.492,402.785c0.035,0.249,0.104,0.436,0.208,0.559c0.189,0.226,0.514,0.339,0.973,0.339
		c0.275,0,0.499-0.03,0.671-0.09c0.325-0.114,0.488-0.325,0.488-0.634c0-0.182-0.08-0.32-0.24-0.42
		c-0.159-0.097-0.412-0.181-0.758-0.255l-0.592-0.13c-0.582-0.129-0.981-0.269-1.199-0.42c-0.368-0.251-0.552-0.646-0.552-1.183
		c0-0.489,0.18-0.896,0.541-1.221c0.36-0.323,0.89-0.485,1.588-0.485c0.583,0,1.081,0.152,1.493,0.458
		c0.412,0.306,0.627,0.749,0.647,1.329h-1.098c-0.021-0.328-0.167-0.562-0.441-0.7c-0.183-0.091-0.409-0.138-0.681-0.138
		c-0.302,0-0.542,0.06-0.723,0.178c-0.18,0.119-0.27,0.285-0.27,0.497c0,0.195,0.088,0.342,0.266,0.438
		c0.114,0.064,0.356,0.141,0.726,0.227l0.959,0.227c0.42,0.099,0.736,0.231,0.946,0.396c0.325,0.258,0.489,0.63,0.489,1.116
		c0,0.499-0.193,0.915-0.58,1.245s-0.932,0.494-1.636,0.494c-0.72,0-1.286-0.162-1.698-0.487c-0.412-0.325-0.618-0.771-0.618-1.34
		H51.492L51.492,402.785z"/>
</g>
<g>
	<path fill="#FFFFFF" d="M38.504,399.005h1.292l1.934,5.467h-1.238l-0.361-1.123h-2.013l-0.371,1.123h-1.194L38.504,399.005z
		 M38.429,402.406h1.4l-0.69-2.151L38.429,402.406z"/>
</g>
</svg>
