<?xml version="1.0" encoding="utf-8"?>
<!-- Generator: Adobe Illustrator 16.0.0, SVG Export Plug-In . SVG Version: 6.00 Build 0)  -->
<!DOCTYPE svg PUBLIC "-//W3C//DTD SVG 1.1//EN" "http://www.w3.org/Graphics/SVG/1.1/DTD/svg11.dtd">
<svg version="1.1" id="svg3010" xmlns:svg="http://www.w3.org/2000/svg"
	 xmlns="http://www.w3.org/2000/svg" xmlns:xlink="http://www.w3.org/1999/xlink" x="0px" y="0px" width="45px" height="42.5px"
	 viewBox="30.25 374 45 42.5" enable-background="new 30.25 374 45 42.5" xml:space="preserve">
<g id="GBLirr.tif">
	<g>
		<path fill="#FCFCFC" d="M73.272,379.709c-0.189,0.623-0.32,1.272-0.579,1.866c-1.056,2.41-3.491,3.888-6.152,3.784
			c-2.661-0.105-5.025-1.792-5.824-4.319c-0.571-1.808-2.095-3.34-4.622-3.244c-2.042,0.08-3.733,1.204-4.233,3.105
			c-0.178,0.677-0.13,1.414-0.168,2.125c-0.021,0.396-0.003,0.796-0.003,1.247c0.975,0,1.916-0.028,2.854,0.01
			c0.709,0.029,1.435,0.068,2.121,0.235c2.912,0.716,4.982,3.347,5.028,6.339c0.018,1.156,0.003,2.313,0.003,3.509
			c-3.353,0-6.673,0-10.045,0c0-3.358,0-6.698,0-10.118c-0.731,0-1.412,0-2.094,0l0.009,0.01c0.057-1.238-0.044-2.51,0.203-3.709
			c0.584-2.844,3.205-4.829,6.116-4.883c1.696-0.03,3.264,0.292,4.623,1.365c1.03,0.812,1.714,1.856,2.126,3.098
			c0.966,2.909,4.319,4.05,6.729,2.277c1.152-0.847,1.765-1.998,1.767-3.446c0.001-1.072,0-2.144,0-3.286c0.725,0,1.433,0,2.141,0
			C73.272,377.019,73.272,378.364,73.272,379.709z"/>
		<path fill="#FCFCFC" d="M61.672,396.476c0.008,0.12,0.021,0.216,0.021,0.312c0,2.303,0.036,4.606-0.011,6.909
			c-0.103,5.087-4.137,9.665-9.167,10.455c-6.057,0.955-11.533-2.803-12.786-8.789c-0.125-0.597-0.191-1.218-0.198-1.828
			c-0.023-2.246-0.009-4.492-0.009-6.737c0-0.098,0.008-0.194,0.014-0.322C46.921,396.476,54.284,396.476,61.672,396.476z"/>
		<path fill="#FCFCFC" d="M49.557,384.248c0.003,3.334,0.005,6.667,0.006,10.001c0,0.025-0.013,0.053-0.031,0.118
			c-3.313,0-6.637,0-10.012,0c0-0.608-0.023-1.206,0.005-1.801c0.053-1.082-0.015-2.198,0.235-3.235
			c0.724-3.004,3.41-5.028,6.501-5.056c1.102-0.01,2.203-0.012,3.304-0.018L49.557,384.248z"/>
		<path fill="#FCFCFC" d="M61.109,415.106c-0.169,0.18-0.27,0.286-0.371,0.394c-0.085-0.117-0.235-0.232-0.239-0.352
			c-0.003-0.124,0.134-0.252,0.211-0.378C60.819,414.863,60.929,414.955,61.109,415.106z"/>
	</g>
</g>
</svg>
