<?xml version="1.0" encoding="utf-8"?>
<!-- Generator: Adobe Illustrator 16.0.0, SVG Export Plug-In . SVG Version: 6.00 Build 0)  -->
<!DOCTYPE svg PUBLIC "-//W3C//DTD SVG 1.1//EN" "http://www.w3.org/Graphics/SVG/1.1/DTD/svg11.dtd">
<svg version="1.1" id="svg3010" xmlns:svg="http://www.w3.org/2000/svg"
	 xmlns="http://www.w3.org/2000/svg" xmlns:xlink="http://www.w3.org/1999/xlink" x="0px" y="0px" width="45px" height="42.5px"
	 viewBox="30.25 374 45 42.5" enable-background="new 30.25 374 45 42.5" xml:space="preserve">
<g>
	<path fill="#FFFFFF" d="M68.146,403.741c0,0,0-13.585,0-18.415c0-4.834-4.311-5.746-4.311-5.746s-11.622,0-18.937,0
		c-7.318,0-6.535,7.182-6.535,7.182s-0.02,10.71-0.02,16.588c0,5.877,5.509,6.399,5.509,6.399s10.841,0,17.629,0
		C68.277,409.749,68.146,403.741,68.146,403.741z M60.329,407.631c-5.839,0-15.157,0-15.157,0s-4.736-0.449-4.736-5.501
		c0-5.051,0.02-14.257,0.02-14.257s-0.672-6.176,5.617-6.176c6.29,0,16.277,0,16.277,0s3.704,0.789,3.704,4.939
		c0,4.155,0,15.829,0,15.829S66.169,407.631,60.329,407.631z"/>
	<path fill="#FFFFFF" d="M61.486,410.605L43.771,410.6c-2.171-0.208-6.282-1.984-6.282-7.25c0-5.667,0.02-15.815,0.025-16.548
		c-0.04-0.467-0.241-3.649,1.782-5.907c1.29-1.438,3.177-2.169,5.601-2.169h19.027l0.088,0.016c1.724,0.369,4.989,2.213,4.989,6.585
		v18.418c0.002,0.096,0.035,2.818-1.925,4.821C65.752,409.915,63.87,410.605,61.486,410.605z M43.899,408.896h17.586
		c1.907,0,3.378-0.513,4.372-1.529c1.463-1.498,1.436-3.585,1.436-3.605v-18.436c0-3.774-3.016-4.748-3.559-4.895H44.898
		c-1.915,0-3.373,0.538-4.327,1.598c-1.631,1.809-1.36,4.612-1.36,4.643l0.005,0.095c0,0-0.021,10.71-0.021,16.583
		C39.196,408.216,43.427,408.841,43.899,408.896z M60.329,408.484l-15.235-0.002c-1.908-0.179-5.511-1.74-5.511-6.353
		c0-4.858,0.02-13.552,0.02-14.219c-0.035-0.434-0.196-3.197,1.564-5.163c1.131-1.264,2.786-1.904,4.906-1.904h16.367l0.09,0.021
		c1.511,0.321,4.382,1.941,4.382,5.772v15.829c0,0.083,0.03,2.47-1.691,4.232C64.056,407.882,62.41,408.484,60.329,408.484z
		 M45.214,406.777h15.112c1.606,0,2.841-0.426,3.671-1.274c1.207-1.232,1.202-3.002,1.202-3.02v-15.847
		c0-3.123-2.475-3.95-2.957-4.086H46.067c-1.611,0-2.836,0.448-3.634,1.34c-1.348,1.506-1.132,3.864-1.129,3.892l0.005,0.048v0.048
		c0,0-0.021,9.206-0.021,14.257C41.289,406.191,44.8,406.728,45.214,406.777z"/>
</g>
<g>
	<path fill="#FFFFFF" d="M59.02,396.238c-0.888,0.74-2.156,1.111-3.804,1.111h-3.159v5.455h-3.149v-15.17h6.513
		c1.501,0,2.699,0.391,3.592,1.174c0.893,0.781,1.339,1.992,1.339,3.633C60.352,394.23,59.908,395.498,59.02,396.238z M56.6,390.773
		c-0.401-0.336-0.963-0.504-1.687-0.504h-2.856v4.467h2.856c0.724,0,1.286-0.182,1.687-0.547c0.401-0.363,0.603-0.939,0.603-1.729
		S57.001,391.109,56.6,390.773z"/>
</g>
</svg>
