<?xml version="1.0" encoding="utf-8"?>
<!-- Generator: Adobe Illustrator 16.0.0, SVG Export Plug-In . SVG Version: 6.00 Build 0)  -->
<!DOCTYPE svg PUBLIC "-//W3C//DTD SVG 1.1//EN" "http://www.w3.org/Graphics/SVG/1.1/DTD/svg11.dtd">
<svg version="1.1" id="svg3010" xmlns:svg="http://www.w3.org/2000/svg"
	 xmlns="http://www.w3.org/2000/svg" xmlns:xlink="http://www.w3.org/1999/xlink" x="0px" y="0px" width="45px" height="42.5px"
	 viewBox="30.25 374 45 42.5" enable-background="new 30.25 374 45 42.5" xml:space="preserve">
<g>
	<path fill="#FFFFFF" d="M72.916,398.782c0,0,0-5.286,0-7.166c0-1.881-1.678-2.236-1.678-2.236s-33.773,0-36.619,0
		c-2.847,0-2.543,2.795-2.543,2.795s-0.01,4.168-0.01,6.455s2.145,2.49,2.145,2.49s33.469,0,36.113,0
		C72.967,401.12,72.916,398.782,72.916,398.782z M69.873,400.296c-2.271,0-35.147,0-35.147,0s-1.843-0.175-1.843-2.141
		s0.008-5.548,0.008-5.548s-0.262-2.403,2.184-2.403c2.447,0,35.584,0,35.584,0s1.442,0.307,1.442,1.922c0,1.617,0,6.16,0,6.16
		S72.146,400.296,69.873,400.296z"/>
	<path fill="#FFFFFF" d="M70.324,401.453l-36.143-0.002c-0.846-0.081-2.445-0.772-2.445-2.821c0-2.205,0.01-6.154,0.01-6.439
		c-0.016-0.182-0.094-1.42,0.693-2.299c0.503-0.56,1.237-0.844,2.182-0.844h36.654l0.034,0.006c0.671,0.144,1.94,0.861,1.94,2.562
		v7.167c0,0.037,0.015,1.097-0.75,1.876C71.983,401.185,71.252,401.453,70.324,401.453z M34.229,400.788h36.095
		c0.742,0,1.314-0.199,1.7-0.595c0.57-0.583,0.56-1.396,0.56-1.403v-7.174c0-1.469-1.174-1.848-1.385-1.904h-36.58
		c-0.748,0-1.314,0.211-1.687,0.625c-0.638,0.709-0.526,1.791-0.524,1.803l0.002,0.037c0,0-0.011,4.168-0.011,6.453
		C32.4,400.523,34.047,400.767,34.229,400.788z M69.873,400.628l-35.179-0.001c-0.741-0.069-2.146-0.677-2.146-2.472
		c0-1.891,0.009-5.273,0.01-5.533c-0.016-0.169-0.078-1.244,0.607-2.009c0.441-0.492,1.084-0.741,1.908-0.741h35.62l0.034,0.008
		c0.589,0.125,1.705,0.756,1.705,2.246v6.16c0.001,0.032,0.014,0.961-0.656,1.646C71.326,400.394,70.685,400.628,69.873,400.628z
		 M34.744,399.964h35.129c0.625,0,1.106-0.166,1.43-0.496c0.469-0.479,0.467-1.168,0.467-1.175v-6.167
		c0-1.215-0.962-1.537-1.15-1.59H35.076c-0.629,0-1.104,0.175-1.414,0.521c-0.525,0.586-0.441,1.504-0.44,1.515l0.002,0.036
		c0,0-0.009,3.582-0.009,5.548C33.215,399.735,34.58,399.944,34.744,399.964z"/>
</g>
<g>
	<path fill="#FFFFFF" d="M37.884,396.416c0.045,0.32,0.134,0.56,0.267,0.719c0.243,0.289,0.66,0.434,1.25,0.434
		c0.354,0,0.64-0.038,0.86-0.114c0.418-0.146,0.627-0.418,0.627-0.814c0-0.231-0.103-0.411-0.307-0.538
		c-0.205-0.124-0.53-0.233-0.975-0.329l-0.76-0.166c-0.747-0.165-1.26-0.345-1.539-0.538c-0.473-0.324-0.709-0.83-0.709-1.519
		c0-0.629,0.231-1.151,0.694-1.566c0.463-0.416,1.143-0.624,2.039-0.624c0.749,0,1.387,0.196,1.916,0.588
		c0.528,0.392,0.806,0.961,0.832,1.707h-1.41c-0.026-0.422-0.215-0.723-0.566-0.9c-0.234-0.117-0.526-0.176-0.874-0.176
		c-0.387,0-0.696,0.076-0.927,0.229s-0.347,0.365-0.347,0.638c0,0.251,0.114,0.438,0.342,0.562c0.146,0.082,0.457,0.179,0.932,0.29
		l1.232,0.29c0.54,0.127,0.944,0.297,1.214,0.51c0.418,0.33,0.627,0.808,0.627,1.434c0,0.641-0.248,1.173-0.744,1.597
		s-1.196,0.636-2.101,0.636c-0.924,0-1.651-0.208-2.18-0.626c-0.529-0.417-0.794-0.991-0.794-1.721H37.884z"/>
	<path fill="#FFFFFF" d="M48.042,395.544c-0.411,0.343-0.997,0.515-1.76,0.515h-1.461v2.523h-1.457v-7.019h3.014
		c0.695,0,1.249,0.182,1.662,0.543c0.413,0.362,0.62,0.923,0.62,1.681C48.659,394.616,48.454,395.201,48.042,395.544z
		 M46.923,393.017c-0.186-0.156-0.446-0.233-0.78-0.233h-1.322v2.066h1.322c0.334,0,0.595-0.084,0.78-0.253
		c0.186-0.168,0.279-0.435,0.279-0.8S47.109,393.172,46.923,393.017z"/>
	<path fill="#FFFFFF" d="M51.123,391.563h1.659l2.483,7.019h-1.59l-0.463-1.442h-2.584l-0.476,1.442h-1.534L51.123,391.563z
		 M51.026,395.93h1.797l-0.886-2.761L51.026,395.93z"/>
	<path fill="#FFFFFF" d="M56.828,392.297c0.565-0.577,1.284-0.866,2.157-0.866c1.168,0,2.022,0.388,2.562,1.162
		c0.298,0.435,0.458,0.871,0.48,1.309h-1.466c-0.093-0.336-0.213-0.59-0.359-0.762c-0.261-0.305-0.648-0.457-1.161-0.457
		c-0.522,0-0.935,0.215-1.236,0.646c-0.301,0.43-0.452,1.039-0.452,1.826s0.159,1.376,0.477,1.769
		c0.318,0.392,0.723,0.588,1.213,0.588c0.503,0,0.887-0.168,1.15-0.505c0.146-0.181,0.267-0.452,0.363-0.814h1.457
		c-0.125,0.766-0.447,1.388-0.963,1.867s-1.178,0.719-1.985,0.719c-0.999,0-1.784-0.324-2.355-0.972
		c-0.572-0.65-0.857-1.542-0.857-2.676C55.853,393.905,56.178,392.961,56.828,392.297z"/>
	<path fill="#FFFFFF" d="M68.39,392.807h-3.714v1.49h3.409v1.219h-3.409v1.805h3.885v1.262h-5.318v-7.019h5.147V392.807z"/>
</g>
</svg>
